# xmcd
#
# Track frame offsets:
#	150
#	19717
#	43797
#	66197
#	91335
#	112397
#	131595
#	154647
#	173667
#	194025
#	218887
#	252360
#	289487
#	312087
#
# Disc length: 4579 seconds
# Revision: 0
# Processed by: cddbd v1.5.2PL0 Copyright (c) Steve Scherf et al.
# Submitted via: dBpowerAMP V12.0
#
DISCID=d311e10e
DTITLE=René and Angela - A Street Called Desire and More
DYEAR=1997
DGENRE=R&B
TTITLE0=Save Your Love (For #1)
TTITLE1=I'll Be Good
TTITLE2=No How - No Way
TTITLE3=You Don't Have To Cry
TTITLE4=Street Called Desire
TTITLE5=Your Smile
TTITLE6=Who's Foolin' Who
TTITLE7=Drive My Love
TTITLE8=Set Me Free (From The Motion Picture "Jumping Jack Flash"
TTITLE9=Save Your Love (For #1) 12" Version
TTITLE10=I'll Be Good 12" Version
TTITLE11=No How - No Way 12"Version
TTITLE12=Your Smile 12" Version
TTITLE13=Drive My Love 12" Version
EXTD=
EXTT0=
EXTT1=
EXTT2=
EXTT3=
EXTT4=
EXTT5=
EXTT6=
EXTT7=
EXTT8=
EXTT9=
EXTT10=
EXTT11=
EXTT12=
EXTT13=
PLAYORDER=
